<?xml version="1.0" encoding="UTF-8"?>
<svg id="Layer_2" data-name="Layer 2" xmlns="http://www.w3.org/2000/svg" viewBox="0 0 246.48 224.25">
  <defs>
    <style>
      .cls-1 {
        fill: #00a79d;
        stroke-width: 0px;
      }
    </style>
  </defs>
  <g id="Layer_1-2" data-name="Layer 1">
    <path class="cls-1" d="m0,124.75c3.09-4.18,6.22-8.33,9.25-12.55,18.19-25.25,36.38-50.5,54.53-75.78,2.86-3.99,6.36-7.15,10.61-9.59,13.21-7.58,26.38-15.22,39.54-22.89C118.49,1.3,123.31-.02,128.6,0c19.9.06,39.8.02,59.7.03,5.82,0,8.19,3.71,5.53,8.91-4.6,8.99-12.1,13.43-22.13,13.54-8.34.1-16.69-.05-25.04.04-12.35.14-21.99,7.96-24.12,19.69-.66,3.61-.46,7.38-1.11,11-3.34,18.67-18.91,31.7-37.92,31.9-2.49.03-4.98-.01-7.46.03-1.69.03-2.79.9-2.79,2.64,0,1.62,1.07,2.52,2.6,2.62,14.88.94,28.41-2.19,39.17-13.33,8.37-8.67,12.26-19.13,12.55-31.11.24-10.01,7.94-17.73,17.93-18.09,4.57-.16,9.15-.06,13.72-.06.76,0,1.53.07,2.56.13-6.17,7.97-6.42,15.85-.54,23.95-5.55,2.36-9.48,6.23-11.06,12.14-1.54,5.8-.3,11.1,3.4,16.07-5.96,2.15-10.16,5.95-11.98,11.95-1.83,6.04-.49,11.56,3.25,16.55-12.73,7.7-14.5,13.8-8.18,28.59-.96,0-1.81,0-2.65,0-8.67,0-17.34-.14-26,.08-2.98.07-5.93,1.11-8.92,1.55-.96.14-2.22.11-2.96-.4-6.52-4.53-12.96-9.18-19.41-13.8-.39-.28-.79-.55-1.17-.84-1.43-1.06-2.88-1.24-3.99.31-1.16,1.63-.54,3.02.99,4.1,3.66,2.61,7.31,5.22,10.97,7.83,3.06,2.19,6.12,4.38,9.25,6.62-1.68,2.21-3.3,4.35-5.11,6.74-2.51-1.78-5.09-3.62-7.67-5.45-.65-.46-1.31-.92-1.96-1.4-1.51-1.12-3.05-1.29-4.18.39-1.05,1.55-.37,2.89,1.05,3.91,2.74,1.96,5.48,3.92,8.21,5.89.57.41,1.11.86,1.8,1.41-4.66,7.33-9.24,14.55-14.01,22.05-.93-.64-1.77-1.2-2.58-1.78-22.11-15.95-44.23-31.91-66.34-47.86-.64-.46-1.33-.86-2-1.29,0-.16,0-.32,0-.48Zm138.66-54.66c0-.28.3-1.38-.08-2.17-.45-.94-1.41-2.19-2.24-2.25-.84-.07-1.98,1-2.6,1.85-.44.62-.21,1.7-.31,2.58-.59,5.09-.93,10.23-1.83,15.26-1.71,9.53-5.18,18.48-9.79,27-1.34,2.47-.47,4.84,1.76,4.57,1.09-.13,2.42-1.24,2.98-2.27,7.45-13.67,11.38-28.34,12.11-44.56Z"/>
    <path class="cls-1" d="m161.19,158.58c-6.75-.84-8.77-3.01-9.09-9.59-.08-1.74-.21-3.47-.34-5.53,5.49.32,10.74.63,16.46.97-.27,3.59-.52,7.04-.78,10.47,6.84.07,15.69,4.76,15.91,10.45,3.77-5.19,9.71-5.37,15.01-6.76,2.87-.75,4.96,1.25,6.7,4.3-.51-4.46,1.17-7.43,3.91-9.99,2.55-2.38,4.53-5.58,9.2-5.48-4.7-4.87-2.57-10.13-1.65-15.2.72-3.96,4.34-6.4,8.11-5.95,4.31.52,7.47,3.72,7.35,7.82-.09,3.28-.4,6.57-.89,9.82-.52,3.5-3.22,5.5-7.81,6.08.38.65.88,1.2,1.05,1.84.41,1.6,1.34,3.47.87,4.81-1.86,5.34-5.29,9.71-10.3,12.38-2.92,1.55-6.5.05-8.44-2.74-.4-.57-.73-1.19-1.26-2.04-1.03,7.65-5.58,11.35-12.59,12.48-2.64.43-5.28.86-8.09,1.31v11.24c2,.58,5.31-.37,5.05,3.18-.21,2.91-2.94,2.35-5.14,2.56,0,2.48-.07,4.87.05,7.26.03.54.62,1.22,1.14,1.53,2.81,1.67,4.16,4.09,4.13,7.36-.04,4.32,0,8.64,0,13.12h-15.8c0-5.24-.31-10.51.18-15.71.16-1.67,2.43-3.13,3.67-4.73.52-.67,1.2-1.42,1.26-2.18.17-2.14.06-4.31.06-6.54-2.19-.42-5.24.3-5.15-3.02.08-2.96,2.79-2.49,4.97-2.65v-16.58c-6.27,2.17-11.23-1.38-16.2-4.02-3.29-1.75-3.55-5.65-1.57-10.24Z"/>
    <path class="cls-1" d="m180.4,111.19c-6.71-.46-13.42-.9-20.12-1.4-1.83-.14-3.71-.22-5.46-.71-5.58-1.57-9.31-7.1-8.84-12.81.49-5.99,5.18-11,11.14-11.41,10.16-.71,20.33-1.35,30.51-1.7,7.7-.27,13.6,5.24,14.45,12.93.75,6.72-4.02,13.57-10.97,14.86-3.49.65-7.18.17-10.78.2,0,0,.08.04.08.04Z"/>
    <path class="cls-1" d="m201.89,54.39c-8.96-.51-17.93-.92-26.89-1.56-8.96-.63-14.39-7.7-12.27-15.71,1.37-5.2,5.86-8.85,11.33-9.19,9.44-.59,18.88-1.15,28.32-1.76,8.58-.55,15.57,5.62,15.72,13.92.14,8.19-6.44,14.49-15.01,14.37-.4,0-.8,0-1.2,0v-.07Z"/>
    <path class="cls-1" d="m182.47,82.15c-5.04-.27-10.09-.51-15.12-.83-9.02-.58-14.7-8.5-11.83-16.57,1.78-5.01,5.48-7.91,10.74-8.31,9.91-.75,19.83-1.31,29.76-1.84,7.52-.4,14.19,5.85,14.5,13.41.33,8.06-5.6,14.79-13.4,14.86-4.88.04-9.77-.39-14.65-.61,0-.03,0-.06,0-.1Z"/>
    <path class="cls-1" d="m180.32,111.15c.6.19,1.19.44,1.81.56,7.19,1.34,12.29,7.78,11.7,14.79-.64,7.7-6.51,13.44-14.12,13.2-10.01-.32-20.01-.89-30-1.66-7.2-.56-11.86-6.12-11.57-13.13.27-6.54,5.52-11.39,12.55-11.75,9.04-.47,18.08-1.03,27.12-1.57.87-.05,1.73-.26,2.6-.4,0,0-.08-.05-.08-.05Z"/>
    <path class="cls-1" d="m242.44,59.96c1.61,1.88,1.91,4.36,1.58,7.01-.24,1.91-.36,3.83-.5,5.75-.31,4.16-2.35,6.89-6.9,7.92,3.92,2.59,4.02,6.26,3.51,10.13-.15,1.11-.24,2.23-.3,3.35-.32,5.7-2.06,7.78-7.87,9.16,4.37,2.18,5.43,5.7,4.66,10.11-.37,2.13-.32,4.32-.63,6.46-.77,5.22-6.44,7.97-11,5.3-3.58-2.11-5.23-5.36-4.84-9.5.22-2.31.64-4.61,1.12-6.88.85-3.96,3.51-5.91,7.83-6.31-4.96-3.08-5.92-7.34-5-12.46.85-4.75,1.23-9.65,7.5-10.56-5.66-6.28-5.38-16.33.72-21.65-4.41-4.79-2.09-10.21-1.08-15.45.69-3.59,4.34-5.69,8.09-5.26,3.94.45,7.18,3.46,7.16,7.21-.02,3.51-.32,7.08-1.01,10.51-.35,1.73-1.85,3.23-3.03,5.15Z"/>
    <path class="cls-1" d="m220.55,21.21c5.39-5.22,11.22-5.29,16.72-.19,1.41,1.31,2.78,2.66,4.19,3.95,2.1,1.92,3.27,4.12,2.33,7.04-.96,3-3.36,4.21-6.17,4.6-4.48.62-8.39-.66-11.5-4.06-1.3-1.42-2.52-2.91-3.89-4.24-1.81-1.76-2.6-3.79-2.1-6.28.14-.27.28-.55.42-.82Z"/>
    <path class="cls-1" d="m220.55,21.21c-.14.27-.28.55-.42.82-.35.31-.74.58-1.04.94-1.51,1.8-2.86,2.48-5.19.78-3.78-2.76-8.32-3.09-12.9-2.77-3.28.23-6.55.43-10.32.67,1.6-1.73,2.96-3.12,4.24-4.59.73-.84,1.57-1.72,1.94-2.73,1.22-3.36,3.74-4.12,6.95-4.12,3.04,0,6.08-.39,9.12-.5,6.48-.24,9.93,4.47,7.82,10.58-.1.3-.15.62-.22.93Z"/>
  </g>
</svg>